# Blender 5.0.1
# www.blender.org
mtllib civic.mtl
o Cube
v 0.955296 -0.126764 -2.250000
v 1.000000 -0.750000 -2.250000
v 1.000000 -0.126085 2.250000
v 1.000000 -0.750000 2.250000
v -0.955296 -0.126764 -2.250000
v -1.000000 -0.750000 -2.250000
v -1.000000 -0.126085 2.250000
v -1.000000 -0.750000 2.250000
v -1.000000 -0.750000 -0.306923
v -1.000000 -0.750000 0.738085
v 1.000000 0.547044 -0.306923
v 1.000000 0.531113 0.738085
v -1.000000 0.531113 0.738085
v -1.000000 0.547044 -0.306923
v 1.000000 -0.750000 0.738085
v 1.000000 -0.750000 -0.306923
v -1.000000 -0.126764 -1.120504
v 1.000000 -0.750000 -1.120504
v -1.000000 -0.750000 -1.120504
v 1.000000 -0.126764 -1.120504
v -1.000000 -0.750000 1.498734
v 1.000000 0.228993 1.498734
v -1.000000 0.228993 1.498734
v 1.000000 -0.750000 1.498734
vn -0.0000 0.9041 0.4273
vn -0.0000 -0.0000 1.0000
vn -0.9992 0.0358 -0.0198
vn -0.0000 -1.0000 -0.0000
vn 1.0000 -0.0000 -0.0000
vn -1.0000 -0.0000 -0.0000
vn -0.0000 0.9999 0.0152
vn 0.9992 0.0358 -0.0198
vn -0.0000 0.9294 0.3691
vn -0.0000 0.7702 -0.6378
vn -0.0000 1.0000 -0.0000
vn -0.0000 -0.0000 -1.0000
vt 0.986228 0.639348
vt 0.017334 0.639348
vt 0.017334 0.274148
vt 0.986228 0.274148
vt 0.986228 -0.000062
vt 0.017334 -0.000061
vt 1.209611 0.451393
vt 1.209611 0.650662
vt 1.751742 0.651174
vt 1.751318 0.451393
vt 0.000000 0.384433
vt 0.307651 0.384433
vt 0.307651 0.461476
vt 0.000000 0.461476
vt -0.045295 0.453451
vt -0.045955 0.764743
vt -0.404037 0.651501
vt -0.403616 0.453114
vt 1.203969 0.454629
vt 1.203549 0.652800
vt 0.815052 0.866686
vt 0.815926 0.454263
vt 0.316639 0.861150
vt 0.317502 0.453793
vt -0.000000 0.115830
vt 0.307650 0.115830
vt 0.307650 0.199263
vt 0.000000 0.199263
vt 0.307650 0.306429
vt 0.000000 0.306429
vt -0.046578 0.451392
vt -0.046579 0.764410
vt 0.318229 0.861008
vt 0.318230 0.451392
vt 0.819416 0.866102
vt 0.819416 0.451393
vt 0.009267 0.978322
vt 0.999072 0.978322
vt 0.999072 0.998006
vt 0.009267 0.998006
vt 0.000000 -0.000000
vt 0.307650 -0.000000
vt 1.742690 0.455136
vt 1.742690 0.653817
vt -0.406886 0.451392
vt -0.406886 0.650879
vt 0.986228 0.999056
vt 0.017334 0.999056
vt 0.027869 0.587097
vt 1.017674 0.587098
vt 0.049994 0.214437
vt 0.995550 0.214437
vt 0.027870 0.008810
vt 1.017675 0.008809
s 0
usemtl Material
f 22/1/1 23/2/1 7/3/1 3/4/1
f 4/5/2 3/4/2 7/3/2 8/6/2
f 19/7/3 17/8/3 5/9/3 6/10/3
f 21/11/4 24/12/4 4/13/4 8/14/4
f 24/15/5 22/16/5 3/17/5 4/18/5
f 18/19/5 20/20/5 11/21/5 16/22/5
f 16/22/5 11/21/5 12/23/5 15/24/5
f 19/25/4 18/26/4 16/27/4 9/28/4
f 9/28/4 16/27/4 15/29/4 10/30/4
f 21/31/6 23/32/6 13/33/6 10/34/6
f 10/34/6 13/33/6 14/35/6 9/36/6
f 11/37/7 14/38/7 13/39/7 12/40/7
f 6/41/4 2/42/4 18/26/4 19/25/4
f 2/43/8 1/44/8 20/20/8 18/19/8
f 9/36/6 14/35/6 17/8/6 19/7/6
f 8/45/6 7/46/6 23/32/6 21/31/6
f 15/24/5 12/23/5 22/16/5 24/15/5
f 10/30/4 15/29/4 24/12/4 21/11/4
f 12/47/9 13/48/9 23/2/9 22/1/9
f 20/49/10 17/50/10 14/38/10 11/37/10
f 17/50/11 20/49/11 1/51/11 5/52/11
f 2/53/12 6/54/12 5/52/12 1/51/12
